<svg xmlns="http://www.w3.org/2000/svg" viewBox="0 0 48 48" fill="none">
    <defs>
        <linearGradient id="g" x1="0" y1="0" x2="48" y2="48" gradientUnits="userSpaceOnUse">
            <stop offset="0%" stop-color="#5ab0e0"/>
            <stop offset="100%" stop-color="#b89cff"/>
        </linearGradient>
    </defs>
    <rect x="10" y="4" width="28" height="3" rx="1.5" fill="url(#g)"/>
    <rect x="10" y="41" width="28" height="3" rx="1.5" fill="url(#g)"/>
    <path d="M13 7h22v4c0 5-3 9-7 12l-4 3-4-3c-4-3-7-7-7-12V7z" stroke="url(#g)" stroke-width="2" fill="none"/>
    <path d="M13 41h22v-4c0-5-3-9-7-12l-4-3-4 3c-4 3-7 7-7 12v4z" stroke="url(#g)" stroke-width="2" fill="none" opacity=".5"/>
    <path d="M24 20v8" stroke="url(#g)" stroke-width="1.5" stroke-linecap="round" opacity=".35"/>
    <circle cx="22" cy="36" r="1.5" fill="url(#g)" opacity=".4"/>
    <circle cx="26" cy="37" r="1" fill="url(#g)" opacity=".25"/>
    <circle cx="24" cy="38" r="1.2" fill="url(#g)" opacity=".35"/>
</svg>
